<svg width="500" height="356" viewBox="0 0 500 356" fill="none" xmlns="http://www.w3.org/2000/svg">
<g clip-path="url(#clip0_203:59)">
<path fill-rule="evenodd" clip-rule="evenodd" d="M280.391 182.41C279.858 185.12 281.621 187.749 284.331 188.283C287.04 188.816 289.669 187.053 290.203 184.344L292.56 172.378L304.672 174.765C307.381 175.299 310.01 173.535 310.544 170.826C311.078 168.116 309.315 165.487 306.605 164.953L294.494 162.567L298.763 140.901C299.297 138.192 297.533 135.563 294.824 135.029C292.114 134.495 289.485 136.258 288.951 138.968L284.682 160.634L263.163 156.394C260.453 155.86 257.824 157.623 257.29 160.333C256.756 163.042 258.52 165.671 261.229 166.205L282.749 170.445L280.391 182.41Z" fill="#EF516F" fill-opacity="0.7"/>
<rect x="325.168" y="28.4645" width="70.4782" height="70.4782" rx="7.5" transform="rotate(33.497 325.168 28.4645)" stroke="#EF516F" stroke-opacity="0.7" stroke-width="5"/>
<circle cx="227" cy="106.051" r="18" stroke="#EF516F" stroke-opacity="0.7" stroke-width="12"/>
<path d="M239.256 229.64L63.511 344.874L8.3287 260.714L184.074 145.481L203.926 152.816L197.493 188.889L218.431 188.433L239.256 229.64Z" stroke="#4B82F3" stroke-width="10" stroke-linecap="round"/>
<path d="M122.104 281.902L113.715 269.107L91.1358 283.912L88.3393 279.647L89.1431 228.897L94.0771 225.662L116.723 260.199L123.413 255.813L126.648 260.747L119.958 265.133L128.293 277.845L122.104 281.902ZM94.6744 274.537L110.48 264.173L94.7976 240.256L94.6744 274.537ZM154.235 262.15C149.05 265.55 143.547 265.85 137.725 263.05C131.903 260.251 126.196 254.586 120.603 246.056C115.193 237.805 112.328 230.396 112.008 223.83C111.652 217.207 114.067 212.196 119.251 208.797C124.436 205.397 129.994 205.181 135.926 208.147C141.82 211.058 147.473 216.64 152.883 224.891C158.476 233.421 161.396 240.913 161.642 247.368C161.889 253.823 159.419 258.751 154.235 262.15ZM126.624 242.108C128.964 245.676 131.298 248.69 133.628 251.148L136.387 216.694C133.833 214.622 131.356 213.336 128.956 212.837C126.612 212.301 124.492 212.655 122.596 213.898C119.418 215.981 118.217 219.559 118.992 224.632C119.767 229.704 122.311 235.53 126.624 242.108ZM150.89 257.049C154.068 254.965 155.324 251.471 154.659 246.566C153.994 241.661 151.395 235.752 146.862 228.839C144.851 225.772 142.828 223.113 140.793 220.86L137.814 254.98C142.796 258.808 147.155 259.498 150.89 257.049Z" fill="#429644"/>
<path d="M474.942 223.043L360.363 153.68L363.953 176.517L329.703 186.216L338.616 204.477L308.722 240.058L423.301 309.421L474.942 223.043Z" stroke="#4B82F3" stroke-width="10" stroke-linecap="round"/>
<path d="M376.579 259.699L384.43 246.567L361.256 232.712L363.873 228.335L409.887 206.91L414.951 209.938L393.758 245.386L400.625 249.491L397.597 254.555L390.731 250.45L382.931 263.496L376.579 259.699ZM371.236 231.804L387.458 241.503L402.134 216.955L371.236 231.804Z" fill="#429644"/>
</g>
<defs>
<clipPath id="clip0_203:59">
<rect width="500" height="356" fill="white"/>
</clipPath>
</defs>
</svg>
