<svg width="500" height="500" viewBox="0 0 500 500" fill="none" xmlns="http://www.w3.org/2000/svg">
<rect x="63.8643" y="91.7631" width="49.8855" height="49.8855" rx="7.5" transform="rotate(-9.11036 63.8643 91.7631)" stroke="#53B555" stroke-opacity="0.7" stroke-width="5"/>
<rect x="95.5301" y="113.001" width="32.1775" height="32.1775" rx="7.5" transform="rotate(-9.11 95.5301 113.001)" stroke="#EF516F" stroke-opacity="0.7" stroke-width="5"/>
<rect x="323.82" y="438.246" width="39.5093" height="39.5093" rx="7.5" transform="rotate(21.6461 323.82 438.246)" stroke="#53B555" stroke-opacity="0.7" stroke-width="5"/>
<path fill-rule="evenodd" clip-rule="evenodd" d="M433.054 402.498C433.594 405.206 436.228 406.964 438.936 406.424C441.644 405.884 443.401 403.251 442.861 400.543L439.293 382.649L455.861 379.345C458.57 378.805 460.327 376.172 459.787 373.464C459.247 370.756 456.614 368.998 453.906 369.538L437.338 372.842L434.14 356.807C433.6 354.099 430.967 352.342 428.259 352.882C425.551 353.422 423.793 356.055 424.333 358.763L427.531 374.798L410.17 378.26C407.462 378.8 405.705 381.433 406.245 384.141C406.785 386.849 409.418 388.606 412.126 388.066L429.486 384.605L433.054 402.498Z" fill="#EF516F" fill-opacity="0.7"/>
<path fill-rule="evenodd" clip-rule="evenodd" d="M181.95 250.514C179.611 251.982 178.865 255.094 180.283 257.464C181.701 259.833 184.746 260.564 187.084 259.095L194.895 254.188L200.519 263.588C201.937 265.958 204.982 266.688 207.32 265.219C209.659 263.75 210.405 260.639 208.987 258.269L203.364 248.87L212.303 243.255C214.642 241.786 215.388 238.674 213.97 236.304C212.553 233.935 209.508 233.204 207.169 234.673L198.229 240.288L193.697 232.713C192.279 230.343 189.234 229.613 186.895 231.081C184.557 232.55 183.811 235.662 185.229 238.031L189.761 245.607L181.95 250.514Z" fill="#53B555" fill-opacity="0.7"/>
<circle cx="445" cy="45" r="12" stroke="#53B555" stroke-opacity="0.7" stroke-width="16"/>
<path fill-rule="evenodd" clip-rule="evenodd" d="M70.295 328.744L78.133 315.612C82.874 318.341 92.2589 320.415 95.184 316.884C98.4282 312.967 95.9106 307.061 94.1573 302.947C93.7825 302.068 93.4425 301.27 93.2013 300.592L107.624 293.191C109.123 297.888 113.353 305.655 120.054 303.211C126.193 300.972 126.703 291.904 126.061 288.286L143.093 287.746C142.299 292.708 142.527 302.977 149.791 304.351C157.056 305.725 161.447 298.067 162.734 294.066L176.217 300.812C173.826 303.254 170.006 310.012 173.854 317.512C177.702 325.012 186.8 319.069 190.867 315.16L198.989 329.213C194.305 331.92 185.891 338.484 189.709 343.085C193.527 347.685 201.743 349.967 205.374 350.534L205.526 365.032C201.167 364.232 191.959 364.159 189.993 370.27C188.026 376.38 194.6 383.392 198.133 386.135L191.016 398.897C190.429 398.532 189.777 398.077 189.071 397.585C184.955 394.717 179.05 390.601 173.947 395.812C168.812 401.056 172.375 406.65 175.126 410.969C175.897 412.181 176.605 413.293 177.039 414.268L161.895 422.039C161.651 421.564 161.408 421.075 161.162 420.581C158.668 415.573 155.869 409.954 149.095 411.297C143.097 412.487 143.318 419.644 143.459 424.213C143.493 425.313 143.522 426.263 143.459 426.944L126.797 428.205C127.233 423.73 126.579 414.287 120.468 412.321C114.358 410.355 109.528 417.631 107.877 421.515L92.9322 413.696C95.3234 411.254 99.1437 404.496 95.2954 396.996C91.447 389.496 83.0773 395.674 79.3734 399.7L71.9727 385.277C72.5186 384.905 73.1476 384.518 73.8143 384.108C77.5438 381.814 82.4504 378.795 80.5508 373.587C78.7171 368.56 72.7089 367.303 68.2637 366.374C67.2809 366.168 66.3745 365.979 65.6065 365.768L64.715 349.827C69.5605 350.985 79.521 351.34 80.5992 343.499C81.6773 335.657 74.1789 330.395 70.295 328.744ZM148.46 385.203C163.595 377.437 169.569 358.873 161.803 343.738C154.037 328.604 135.472 322.63 120.338 330.396C105.203 338.162 99.2298 356.726 106.996 371.861C114.761 386.996 133.326 392.969 148.46 385.203Z" fill="#53B555"/>
<path fill-rule="evenodd" clip-rule="evenodd" d="M197.355 381.068L201.218 369.065C205.348 371.197 214.031 374.151 215.716 368.913C217.402 363.676 212.705 358.311 210.147 356.284L218.042 348.589C220.009 351.831 225.241 357.649 230.433 354.984C235.626 352.32 233.458 343.715 231.724 339.746L243.652 336.359C243.566 339.743 243.832 346.652 249.942 348.618C256.053 350.584 259.298 341.995 259.611 337.28L269.802 341.161C268.274 345.285 266.528 353.955 271.766 355.64C277.003 357.326 282.355 351.422 284.376 348.259L292.811 357.596C289.323 359.082 283.085 363.497 286.046 369.267C289.006 375.036 296.23 372.544 299.472 370.576L303.229 383.225C299.722 382.899 292.648 383.553 292.412 388.775C292.177 393.998 298.665 397.41 301.938 398.463L298.797 410.096C295.394 408.199 288.092 405.568 286.111 410.229C284.13 414.89 288.518 420.837 290.959 423.228L281.992 432.385C280.265 429.019 275.514 422.955 270.321 425.619C265.129 428.283 267.297 436.888 269.031 440.858L256.363 442.802C256.189 437.729 255.158 431.577 249.351 430.913C244.932 430.407 242.649 437.135 241.347 440.975C241.13 441.613 240.941 442.171 240.773 442.603L229.492 438.37C231.506 434.603 233.506 427.018 228.268 425.333C223.03 423.648 218.153 428.701 216.008 431.624L207.203 421.565C210.815 420.319 217.225 416.241 213.969 409.895C210.713 403.548 203.661 406.377 200.543 408.585L196.786 395.936C201.378 396.009 210.404 394.779 209.766 389.276C209.129 383.772 201.227 381.511 197.355 381.068ZM259.628 408.33C269.585 403.221 273.515 391.008 268.406 381.051C263.297 371.094 251.084 367.164 241.127 372.273C231.17 377.382 227.24 389.596 232.349 399.553C237.458 409.51 249.671 413.439 259.628 408.33Z" fill="#4B82F3"/>
<path fill-rule="evenodd" clip-rule="evenodd" d="M237.266 315.038L235.303 300.558C239.661 301.358 248.799 301.65 250.485 296.412C252.17 291.174 244.577 286.082 240.569 284.19L248.445 274.683C251.017 277.919 258.034 283.428 262.65 281.06C267.265 278.692 265.674 269.791 264.662 265.451L278.771 262.766C277.243 266.891 275.934 275.701 282.917 277.948C289.901 280.195 294.949 272.989 296.6 269.105L306.107 276.981C302.015 278.474 297.14 286.137 299.731 291.185C301.951 295.512 310.051 295.911 313.527 293.216L315.102 305.162C311.582 303.628 305.171 304.412 302.823 309.641C300.698 314.375 306.691 321.321 309.854 323.342L303.439 333.922C300.628 330.81 293.851 325.177 289.235 327.545C284.62 329.914 285.477 337.976 286.483 341.712L274.186 344.378C274.382 340.026 273.247 330.83 267.136 328.864C261.026 326.897 257.157 333.68 255.987 337.318L244.297 328.74C244.618 328.477 244.986 328.191 245.383 327.882C248.694 325.304 254.057 321.129 251.414 315.978C248.731 310.75 242.457 313.1 238.436 314.606C238.02 314.762 237.628 314.909 237.266 315.038ZM284.093 321.074C293.253 316.374 296.869 305.137 292.168 295.977C287.468 286.816 276.231 283.201 267.071 287.901C257.911 292.602 254.295 303.838 258.995 312.998C263.696 322.159 274.932 325.774 284.093 321.074Z" fill="#E3415F"/>
<path fill-rule="evenodd" clip-rule="evenodd" d="M305.71 238.922L313.216 228.694C315.775 230.721 322.046 234.184 326.661 231.816C331.276 229.448 327.288 222.384 324.716 219.149L336.255 213.228C337.143 217.327 340.219 224.859 345.411 222.195C350.603 219.531 351.357 213.07 351.085 210.173L361.608 211.151C361.646 214.775 362.813 222.376 367.178 223.78C371.542 225.185 375.702 218.495 377.236 214.975L388.537 221.02C385.535 222.864 380.346 228.138 383.602 234.484C386.859 240.83 394.859 236.3 398.452 233.241L403.632 243.337C399.54 244.83 391.946 248.97 394.314 253.585C396.682 258.2 404.277 258.798 407.778 258.519L406.45 270.133C402.695 269.327 394.836 268.805 393.431 273.169C392.027 277.534 398.729 282.902 402.255 285.04L394.749 295.268C392.912 292.871 388.083 288.668 383.468 291.036C378.852 293.404 382.139 302.65 384.359 306.977L373.172 311.806C371.439 307.837 366.819 300.49 362.203 302.858C357.588 305.226 357.952 312.328 358.711 315.582L344.934 315.364C345.981 311.486 346.765 303.309 341.528 301.624C336.29 299.939 332.64 306.792 331.469 310.429L320.52 303.293C323.275 300.969 328.119 295.022 325.454 289.829C322.79 284.637 314.444 288.494 310.605 291.072L305.424 280.976C309.881 279.6 318.202 275.695 315.833 271.079C313.465 266.464 304.896 265.152 300.908 265.073L301.867 252.738C305.387 254.272 312.919 255.812 314.885 249.702C316.851 243.591 309.588 239.969 305.71 238.922ZM363.4 278.558C372.958 273.653 376.731 261.928 371.826 252.37C366.922 242.811 355.197 239.038 345.638 243.943C336.079 248.848 332.307 260.573 337.211 270.131C342.116 279.69 353.841 283.463 363.4 278.558Z" fill="#53B555"/>
<path fill-rule="evenodd" clip-rule="evenodd" d="M228.96 144.385L234.245 129.829C239.22 131.832 249.662 134.309 251.628 128.198C253.595 122.087 247.267 115.556 243.858 113.054L256.43 102.047C259.612 105.881 267.129 112.956 271.745 110.588C276.36 108.219 275.958 97.4935 275.18 92.4266L291.083 87.9105C290.998 91.2948 292.573 98.6251 299.556 100.872C306.54 103.119 309.393 94.0027 309.947 89.1636L324.483 92.6368C323.079 97.0015 321.583 106.515 326.836 109.65C332.088 112.785 340.588 107.452 344.181 104.394L355.169 115.154C350.842 117.374 343.002 123.401 346.258 129.747C349.515 136.094 359.969 135.163 364.789 133.904L369.305 149.807C364.349 149.617 354.526 150.831 354.883 157.208C355.239 163.584 362.85 168 366.61 169.41L361.695 184.687C358.655 182.906 351.648 180.732 347.936 186.281C344.224 191.829 349.166 199.922 352.101 203.275L340.23 212.099C337.295 208.746 330.127 202.707 324.935 205.371C319.743 208.035 320.469 217.38 321.481 221.72L306.669 226.587C305.281 220.922 301.35 210.185 296.735 212.553C292.119 214.921 287.17 222.32 285.272 225.723L271.457 221.88C272.855 216.911 274.56 206.622 270.195 205.218C265.831 203.813 257.06 208.617 253.22 211.195L242.584 199.343C245.813 196.168 251.532 188.375 248.571 182.606C245.611 176.836 236.932 178.86 232.963 180.593L229.538 165.042C232.922 165.127 240.252 163.552 242.5 156.569C244.747 149.585 234.409 145.536 228.96 144.385ZM313.113 184.107C328.247 176.341 334.221 157.776 326.455 142.642C318.689 127.507 300.125 121.534 284.99 129.3C269.856 137.065 263.882 155.63 271.648 170.764C279.414 185.899 297.978 191.873 313.113 184.107Z" fill="#E3415F"/>
<path fill-rule="evenodd" clip-rule="evenodd" d="M351.041 101.785L354.201 91.964C358.326 93.4918 366.996 95.2379 368.681 90.0003C370.366 84.7626 367.359 79.1389 365.645 76.9818L375.741 71.8013C377.234 75.8941 381.517 83.4137 386.71 80.7494C391.902 78.0852 393.396 73.067 393.494 70.891L404.757 73.3109C403.568 75.1358 403.508 81.7035 406.332 85.2571C408.688 88.2216 413.333 86.7054 417.707 85.2776C418.107 85.147 418.505 85.0171 418.898 84.8914L422.988 94.6364C419.018 96.3695 413.233 100.483 415.602 105.098C417.97 109.713 423.888 111.778 426.551 112.234L423.04 123.146C419.397 121.371 411.688 119.132 410.003 124.369C408.317 129.607 411.325 135.231 413.039 137.388L401.5 143.308C400.371 139.333 396.96 131.973 392.344 134.341C387.729 136.709 385.911 143.109 385.578 146.012L373.575 142.15C374.752 139.117 376.229 132.407 372.722 129.834C369.215 127.26 362.088 129.824 358.963 131.427L354.134 120.24C358.11 119.111 365.321 115.411 362.361 109.641C359.401 103.872 353.581 102 351.041 101.785ZM398.057 125.944C407.615 121.039 411.388 109.314 406.483 99.7557C401.579 90.197 389.854 86.4243 380.295 91.329C370.736 96.2337 366.964 107.959 371.868 117.517C376.773 127.076 388.498 130.849 398.057 125.944Z" fill="#4B82F3"/>
<path d="M118.833 377.083C118.833 372.928 120.484 368.943 123.422 366.005C126.36 363.067 130.345 361.417 134.5 361.417C138.655 361.417 142.64 363.067 145.578 366.005C148.516 368.943 150.167 372.928 150.167 377.083H118.833ZM134.5 359.458C128.008 359.458 122.75 354.2 122.75 347.708C122.75 341.216 128.008 335.958 134.5 335.958C140.992 335.958 146.25 341.216 146.25 347.708C146.25 354.2 140.992 359.458 134.5 359.458Z" fill="#53B555"/>
<g clip-path="url(#clip0_208:16)">
<path d="M282.299 177.647C282.299 173.244 284.048 169.022 287.161 165.909C290.274 162.797 294.496 161.048 298.898 161.048C303.3 161.048 307.522 162.797 310.635 165.909C313.748 169.022 315.497 173.244 315.497 177.647H282.299ZM298.898 158.973C292.02 158.973 286.449 153.402 286.449 146.524C286.449 139.646 292.02 134.075 298.898 134.075C305.776 134.075 311.347 139.646 311.347 146.524C311.347 153.402 305.776 158.973 298.898 158.973Z" fill="#EF516F"/>
</g>
<defs>
<clipPath id="clip0_208:16">
<rect width="49.7963" height="49.7963" fill="white" transform="translate(274 132)"/>
</clipPath>
</defs>
</svg>
