<svg width="500" height="500" viewBox="0 0 500 500" fill="none" xmlns="http://www.w3.org/2000/svg">
<path fill-rule="evenodd" clip-rule="evenodd" d="M46.8795 71.1345C47.2136 68.3934 45.2623 65.9004 42.5212 65.5663C39.78 65.2322 37.2871 67.1835 36.953 69.9247L36.1522 76.4948L29.4821 75.6819C26.7409 75.3478 24.248 77.2991 23.9139 80.0402C23.5798 82.7814 25.5311 85.2743 28.2723 85.6084L34.9424 86.4213L33.7258 96.4039C33.3917 99.145 35.343 101.638 38.0841 101.972C40.8253 102.306 43.3182 100.355 43.6523 97.6137L44.869 87.6312L54.7515 88.8356C57.4926 89.1697 59.9856 87.2184 60.3197 84.4773C60.6537 81.7361 58.7024 79.2432 55.9613 78.9091L46.0788 77.7046L46.8795 71.1345Z" fill="#EF516F" fill-opacity="0.7"/>
<rect x="355.445" y="408.262" width="88.5967" height="88.5967" rx="7.5" transform="rotate(-9.11036 355.445 408.262)" stroke="#EF516F" stroke-opacity="0.7" stroke-width="5"/>
<circle cx="67" cy="424" r="16.5" stroke="#53B555" stroke-opacity="0.7" stroke-width="19"/>
<rect x="346.67" y="442.674" width="44.3583" height="44.3583" rx="7.5" transform="rotate(-9.11 346.67 442.674)" stroke="#53B555" stroke-opacity="0.7" stroke-width="5"/>
<path d="M74 143.21V77.4688C74 74.7196 76.2196 72.4861 78.9688 72.4689L145.554 72.0528C149.354 72.029 151.791 76.0868 149.984 79.4303L144.866 88.8979C144.307 89.9327 144.022 91.1937 144.624 92.2043C146.695 95.6826 152.81 94 165.5 94C178.753 94 182.858 95.8351 183.428 91.7105C183.537 90.9236 183.311 90.1314 182.948 89.4247L177.74 79.284C176.032 75.9567 178.448 72 182.188 72H243.5C246.261 72 248.5 74.2386 248.5 77V137.651C248.5 141.178 252.055 143.597 255.336 142.302L266.484 137.901C267.154 137.637 267.875 137.499 268.586 137.611C273.767 138.428 274.5 143.242 274.5 157.5C274.5 171.685 273.774 175.651 268.665 175.982C267.901 176.032 267.148 175.815 266.47 175.458L255.829 169.857C252.499 168.105 248.5 170.519 248.5 174.282V243C248.5 245.761 246.261 248 243.5 248H79C76.2386 248 74 245.761 74 243V176.444C74 172.644 78.072 170.233 81.4042 172.06L88.3768 175.884C89.1137 176.288 89.9455 176.518 90.7842 176.463C95.7864 176.135 95.5 173.373 95.5 159.284C95.5 145.017 95.7937 142.409 90.5928 142.693C89.8718 142.733 89.1786 142.975 88.558 143.344L81.5554 147.508C78.2225 149.489 74 147.088 74 143.21Z" fill="#19244B"/>
<rect x="103" y="135.063" width="38.9262" height="15.3282" rx="7.66412" fill="#53B555"/>
<rect x="146.097" y="135.063" width="61.8649" height="15.3282" rx="7.66412" fill="#EF516F"/>
<rect x="103" y="155.501" width="51.4382" height="15.3282" rx="7.66412" fill="#4B82F3"/>
<rect x="158.609" y="155.501" width="66.0356" height="15.3282" rx="7.66412" fill="#53B555"/>
<rect x="103" y="175.939" width="28.4996" height="15.3282" rx="7.66412" fill="#53B555"/>
<rect x="135.67" y="175.939" width="62.56" height="15.3282" rx="7.66412" fill="#EF516F"/>
<path d="M65.2147 317.364L66.3203 318.566C69.4048 321.918 75 319.736 75 315.18V251.5C75 248.739 77.2386 246.5 80 246.5H139.42C143.251 246.5 145.659 242.368 143.77 239.035L140.261 232.843C139.765 231.968 139.513 230.957 139.703 229.97C140.647 225.072 144.391 223 157.5 223C170.241 223 176.223 224.957 177.664 229.564C178.041 230.772 177.55 232.041 176.74 233.013L172.334 238.299C169.62 241.556 171.936 246.5 176.175 246.5H245C247.761 246.5 250 248.739 250 251.5V418.5C250 421.261 247.761 423.5 245 423.5H181.731C177.326 423.5 175.073 418.215 178.124 415.037L180.819 412.23C181.585 411.433 182.114 410.401 182.062 409.297C181.824 404.222 177.32 401.5 162.5 401.5C147.221 401.5 142.329 404.393 142.809 409.775C142.882 410.585 143.274 411.326 143.797 411.949L146.599 415.284C149.331 418.537 147.018 423.5 142.77 423.5H80C77.2386 423.5 75 421.261 75 418.5V357.413C75 353.309 70.3285 350.953 67.0281 353.392L64.7631 355.066C63.9408 355.674 62.944 356.066 61.9333 355.912C57.0615 355.167 55 349.803 55 336C55 323.07 56.8092 317.786 61.0431 316.086C62.5205 315.493 64.1368 316.192 65.2147 317.364Z" fill="#5A4F4F"/>
<path d="M254.5 247H420C422.761 247 425 249.239 425 252V320.868C425 324.918 420.435 327.288 417.123 324.957L413.112 322.135C412.076 321.406 410.779 321.031 409.576 321.428C405.278 322.844 404.5 327.065 404.5 338C404.5 349 405.287 353.993 409.653 355.562C410.805 355.976 412.062 355.625 413.08 354.947L417.459 352.027C420.734 349.844 425.131 352.126 425.231 356.06L426.869 420.373C426.941 423.183 424.682 425.5 421.871 425.5H355.078C350.855 425.5 348.534 420.589 351.214 417.326L355.673 411.898C355.891 411.633 356.09 411.35 356.213 411.031C357.54 407.571 354.063 403 338 403C321.2 403 317.167 408 319 411.5L323.202 417.692C325.455 421.012 323.077 425.5 319.065 425.5H254.5C251.739 425.5 249.5 423.261 249.5 420.5V355.682C249.5 352.344 246.292 349.944 243.089 350.886L233.457 353.719C232.825 353.904 232.157 353.981 231.512 353.848C226.352 352.787 226.5 347.962 226.5 334C226.5 320.259 226.356 312.926 231.271 312.08C232.068 311.943 232.869 312.206 233.574 312.6L242.061 317.343C245.394 319.205 249.5 316.796 249.5 312.978V252C249.5 249.239 251.739 247 254.5 247Z" fill="#5865F2"/>
<g clip-path="url(#clip0_203:89)">
<path d="M373.58 304.768C366.76 301.899 359.447 299.785 351.801 298.574C351.661 298.551 351.522 298.609 351.45 298.726C350.51 300.26 349.468 302.261 348.739 303.833C340.514 302.705 332.332 302.705 324.277 303.833C323.547 302.226 322.467 300.26 321.523 298.726C321.451 298.613 321.312 298.555 321.172 298.574C313.53 299.781 306.217 301.895 299.393 304.768C299.334 304.791 299.283 304.83 299.25 304.881C285.378 323.883 281.578 342.418 283.442 360.723C283.451 360.812 283.505 360.898 283.581 360.952C292.733 367.115 301.599 370.856 310.3 373.336C310.439 373.375 310.586 373.328 310.675 373.223C312.733 370.646 314.568 367.929 316.141 365.071C316.234 364.904 316.145 364.705 315.955 364.639C313.045 363.627 310.274 362.393 307.609 360.991C307.398 360.878 307.381 360.602 307.575 360.47C308.136 360.084 308.697 359.683 309.233 359.278C309.33 359.204 309.465 359.189 309.578 359.235C327.09 366.566 346.048 366.566 363.352 359.235C363.466 359.185 363.601 359.2 363.702 359.274C364.238 359.679 364.799 360.084 365.364 360.47C365.558 360.602 365.546 360.878 365.335 360.991C362.669 362.42 359.898 363.627 356.984 364.635C356.794 364.701 356.71 364.904 356.803 365.071C358.409 367.925 360.244 370.642 362.264 373.219C362.349 373.328 362.5 373.375 362.64 373.336C371.383 370.856 380.248 367.115 389.4 360.952C389.48 360.898 389.531 360.816 389.539 360.727C391.77 339.564 385.802 321.181 373.719 304.885C373.69 304.83 373.639 304.791 373.58 304.768ZM318.756 349.577C313.484 349.577 309.14 345.139 309.14 339.689C309.14 334.238 313.4 329.8 318.756 329.8C324.154 329.8 328.456 334.277 328.372 339.689C328.372 345.139 324.112 349.577 318.756 349.577ZM354.31 349.577C349.038 349.577 344.694 345.139 344.694 339.689C344.694 334.238 348.954 329.8 354.31 329.8C359.708 329.8 364.01 334.277 363.926 339.689C363.926 345.139 359.708 349.577 354.31 349.577Z" fill="white"/>
</g>
<path d="M324.061 247.5H253C250.239 247.5 248 245.261 248 242.5V173.886C248 170.099 252.046 167.687 255.378 169.488L266.038 175.25C266.345 175.416 266.667 175.561 267.012 175.614C269.912 176.055 274.5 173.338 274.5 156C274.5 139.085 270.556 137.635 267.718 139.065C267.222 139.316 266.727 139.579 266.193 139.734L254.39 143.15C251.192 144.076 248 141.676 248 138.347V77.0625C248 74.2768 250.277 72.0283 253.062 72.0629L321.468 72.9126C324.908 72.9554 327.278 76.3781 326.108 79.6129L320.376 95.4607C320.128 96.1453 320.005 96.8841 320.166 97.594C321.198 102.144 326.224 102 340 102C354.016 102 355.386 102.149 355.917 97.3524C355.979 96.7912 355.929 96.2205 355.789 95.6734L351.592 79.2369C350.785 76.0752 353.174 73 356.437 73H419.5C422.261 73 424.5 75.2386 424.5 78V137.534C424.5 141.221 428.354 143.64 431.674 142.037L437.315 139.313C438.402 138.789 439.661 138.631 440.758 139.135C445.332 141.236 448.5 146.608 448.5 158C448.5 169.484 445.28 174.448 440.647 175.708C439.598 175.993 438.501 175.69 437.578 175.117L432.137 171.74C428.806 169.673 424.5 172.068 424.5 175.988V242.5C424.5 245.261 422.261 247.5 419.5 247.5H355.885C352.348 247.5 349.929 251.073 351.243 254.357L356.23 266.825C356.663 267.908 356.774 269.15 356.163 270.143C354.017 273.629 349.204 273.5 339 273.5C328.913 273.5 323.64 273.626 321.669 270.262C321.053 269.21 321.323 267.91 321.908 266.842L328.447 254.902C330.271 251.57 327.86 247.5 324.061 247.5Z" fill="#6E5494"/>
<path d="M337 114.667C310.296 114.667 288.667 136.296 288.667 163C288.661 173.146 291.851 183.037 297.783 191.269C303.716 199.5 312.09 205.654 321.717 208.859C324.134 209.279 325.038 207.829 325.038 206.558C325.038 205.412 324.975 201.609 324.975 197.558C312.833 199.796 309.692 194.6 308.725 191.879C308.179 190.487 305.825 186.2 303.771 185.05C302.079 184.146 299.663 181.908 303.708 181.85C307.517 181.787 310.233 185.354 311.142 186.804C315.492 194.112 322.442 192.058 325.216 190.792C325.642 187.65 326.908 185.538 328.3 184.329C317.546 183.121 306.308 178.95 306.308 160.462C306.308 155.204 308.179 150.859 311.263 147.47C310.779 146.262 309.088 141.308 311.746 134.662C311.746 134.662 315.791 133.396 325.038 139.621C328.972 138.529 333.037 137.979 337.121 137.987C341.229 137.987 345.338 138.529 349.204 139.616C358.446 133.333 362.496 134.667 362.496 134.667C365.154 141.313 363.463 146.267 362.979 147.475C366.058 150.859 367.933 155.146 367.933 160.462C367.933 179.013 356.638 183.121 345.884 184.329C347.633 185.837 349.146 188.737 349.146 193.271C349.146 199.733 349.083 204.929 349.083 206.563C349.083 207.829 349.992 209.337 352.409 208.854C362.003 205.614 370.34 199.448 376.246 191.223C382.152 182.997 385.331 173.126 385.333 163C385.333 136.296 363.704 114.667 337 114.667Z" fill="#FAFAFF"/>
<path d="M111.601 323.173C111.601 323.173 109.447 321.609 112.032 319.521L118.054 314.097C118.054 314.097 119.778 312.271 121.6 313.862L177.177 356.24V376.561C177.177 376.561 177.15 379.753 173.084 379.4L111.601 323.173Z" fill="#2B8FD2"/>
<path d="M125.926 336.271L111.601 349.388C111.601 349.388 110.129 350.491 111.601 352.461L118.252 358.554C118.252 358.554 119.831 360.263 122.165 358.319L137.352 346.721L125.926 336.271Z" fill="#1070B3"/>
<path d="M151.076 336.38L177.348 316.176L177.177 295.963C177.177 295.963 176.055 291.551 172.312 293.847L137.352 325.893L151.076 336.38Z" fill="#2F80B6"/>
<path d="M173.084 379.427C174.61 381 176.459 380.485 176.459 380.485L196.933 370.324C199.553 368.525 199.185 366.292 199.185 366.292V305.617C199.185 302.951 196.475 302.029 196.475 302.029L178.73 293.414C174.852 291 172.312 293.848 172.312 293.848C172.312 293.848 175.579 291.479 177.177 295.963V376.191C177.177 376.742 177.06 377.285 176.827 377.773C176.36 378.722 175.346 379.608 172.914 379.237L173.084 379.427Z" fill="#47ABF0"/>
<defs>
<clipPath id="clip0_203:89">
<rect width="107" height="76" fill="white" transform="translate(283 298)"/>
</clipPath>
</defs>
</svg>
