<svg width="256" height="256" viewBox="0 0 256 256" fill="none" xmlns="http://www.w3.org/2000/svg">
<rect width="256" height="256" fill="#95895E"/>
<path d="M214.077 106.809C214.077 136.841 205.395 169.269 189.998 194.133C174.591 219.014 152.692 236 126.305 236C99.9415 236 78.9138 219.042 64.3712 194.177C49.8339 169.32 42 136.88 42 106.809C42 76.7626 49.8153 55.1533 64.0526 41.0434C78.2936 26.9299 99.2821 20 126.305 20C153.329 20 175.213 26.9317 190.332 41.083C205.427 55.2125 214.077 76.8199 214.077 106.809Z" fill="#D3C387" stroke="black" stroke-width="4"/>
<mask id="mask0_16_78" style="mask-type:alpha" maskUnits="userSpaceOnUse" x="40" y="18" width="177" height="220">
<path d="M216.077 106.809C216.077 167.56 180.992 238 126.305 238C71.6179 238 40 167.56 40 106.809C40 46.0578 71.6179 18 126.305 18C180.992 18 216.077 46.0578 216.077 106.809Z" fill="#D3C387"/>
</mask>
<g mask="url(#mask0_16_78)">
<path d="M114.362 68.2801L157.322 62.5008L185.255 63.8493L207.024 69.6286L201.438 125.881L183.522 168.263L149.809 194.27L129.774 202.168L84.1171 164.795L65.2379 136.091L55.0264 107.965V85.5835L114.362 68.2801Z" fill="#19244B"/>
<mask id="mask1_16_78" style="mask-type:alpha" maskUnits="userSpaceOnUse" x="55" y="62" width="153" height="141">
<path d="M114.362 68.2801L157.322 62.5008L185.255 63.8493L207.024 69.6286L201.438 125.881L183.522 168.263L149.809 194.27L129.774 202.168L84.1171 164.795L65.2379 136.091L55.0264 107.965V85.5835L114.362 68.2801Z" fill="#19244B"/>
</mask>
<g mask="url(#mask1_16_78)">
<rect x="51.3921" y="61.9297" width="52.8717" height="23.5319" rx="11.766" fill="#53B555"/>
<rect x="109.929" y="61.9297" width="84.0283" height="23.5319" rx="11.766" fill="#EF516F"/>
<rect x="51.3921" y="93.3056" width="69.8662" height="23.5319" rx="11.766" fill="#4B82F3"/>
<rect x="126.923" y="93.3056" width="89.6931" height="23.5319" rx="11.766" fill="#53B555"/>
<rect x="64.3921" y="125.93" width="52.8717" height="23.5319" rx="11.766" fill="#53B555"/>
<rect x="122.929" y="125.93" width="84.0283" height="23.5319" rx="11.766" fill="#EF516F"/>
<rect x="64.3921" y="157.306" width="69.8662" height="23.5319" rx="11.766" fill="#4B82F3"/>
<rect x="139.923" y="157.306" width="89.6931" height="23.5319" rx="11.766" fill="#53B555"/>
<rect x="64.3921" y="188.681" width="38.7097" height="23.5319" rx="11.766" fill="#53B555"/>
<rect x="108.767" y="188.681" width="84.9724" height="23.5319" rx="11.766" fill="#EF516F"/>
</g>
<path d="M275.412 171.022C249.079 71.4811 206.445 31.9507 53.0998 86.0662C53.0998 145.804 106.848 191.057 132.277 200.8M206.059 68.3682C211.454 187.975 139.79 214.367 38.0735 211.285" stroke="black" stroke-width="10"/>
<path d="M40 131.468C46.1646 100.067 49.8249 89.8564 52.3292 85.8109C94.1331 -4.53011 226.243 43.5019 239.002 55.951" stroke="black" stroke-width="10"/>
</g>
</svg>
