<svg width="200" height="200" viewBox="0 0 200 200" fill="none" xmlns="http://www.w3.org/2000/svg">
<path fill-rule="evenodd" clip-rule="evenodd" d="M19.7864 49.9919C19.2525 52.7012 21.0161 55.3303 23.7254 55.8642C26.4348 56.398 29.0639 54.6344 29.5977 51.9251L30.8054 45.7959L37.0303 47.0225C39.7396 47.5563 42.3687 45.7927 42.9026 43.0834C43.4364 40.3741 41.6729 37.745 38.9635 37.2111L32.7386 35.9846L34.5278 26.9043C35.0616 24.195 33.2981 21.5658 30.5887 21.032C27.8794 20.4982 25.2503 22.2617 24.7164 24.9711L22.9273 34.0514L13.9427 32.2811C11.2334 31.7472 8.60427 33.5108 8.07043 36.2201C7.53658 38.9295 9.30017 41.5586 12.0095 42.0924L20.9941 43.8627L19.7864 49.9919Z" fill="#EF516F" fill-opacity="0.7"/>
<circle cx="128.5" cy="171.5" r="13.5" stroke="#53B555" stroke-opacity="0.7" stroke-width="12"/>
<rect x="136.469" y="45.3805" width="32.1775" height="32.1775" rx="7.5" transform="rotate(27.9636 136.469 45.3805)" stroke="#53B555" stroke-opacity="0.7" stroke-width="5"/>
<path d="M99.5 46.7917L138.873 55.5413C139.937 55.7778 140.889 56.3701 141.571 57.2203C142.253 58.0705 142.625 59.1279 142.625 60.2179V108.072C142.625 112.805 141.456 117.465 139.222 121.638C136.989 125.81 133.76 129.367 129.822 131.992L99.5 152.208L69.1783 131.992C65.2409 129.368 62.0122 125.812 59.7788 121.64C57.5453 117.468 56.3761 112.809 56.375 108.077V60.2179C56.3752 59.1279 56.747 58.0705 57.4291 57.2203C58.1112 56.3701 59.0628 55.7778 60.1269 55.5413L99.5 46.7917ZM99.5 56.6098L65.9583 64.0609V108.072C65.9584 111.227 66.7373 114.334 68.226 117.116C69.7148 119.897 71.8672 122.269 74.4923 124.019L99.5 140.694L124.508 124.019C127.132 122.269 129.284 119.899 130.773 117.118C132.261 114.337 133.041 111.231 133.042 108.077V64.0609L99.5 56.6146V56.6098ZM99.5 75.5417C101.61 75.5407 103.661 76.2361 105.336 77.52C107.01 78.8038 108.214 80.6044 108.761 82.6423C109.307 84.6802 109.166 86.8416 108.359 88.7911C107.552 90.7405 106.124 92.3691 104.296 93.4242L104.292 113.875H94.7083V93.4242C92.8815 92.3693 91.4537 90.7411 90.6465 88.7922C89.8392 86.8432 89.6976 84.6823 90.2436 82.6446C90.7896 80.607 91.9927 78.8064 93.6663 77.5222C95.3399 76.2379 97.3905 75.5418 99.5 75.5417Z" fill="#4B82F3"/>
</svg>
