<svg width="500" height="500" viewBox="0 0 500 500" fill="none" xmlns="http://www.w3.org/2000/svg">
<rect x="61.5" y="70.5" width="54" height="54" rx="7.5" stroke="#53B555" stroke-opacity="0.7" stroke-width="5"/>
<rect x="37.5" y="107.5" width="65" height="65" rx="7.5" stroke="#EF516F" stroke-opacity="0.7" stroke-width="5"/>
<rect x="275.5" y="57.5" width="38" height="38" rx="7.5" stroke="#EF516F" stroke-opacity="0.7" stroke-width="5"/>
<rect x="344.5" y="290.5" width="84" height="94" rx="7.5" stroke="#EF516F" stroke-opacity="0.7" stroke-width="5"/>
<rect x="82.5" y="145.5" width="45" height="45" rx="7.5" stroke="#53B555" stroke-opacity="0.7" stroke-width="5"/>
<rect x="383.5" y="304.5" width="29" height="29" rx="7.5" stroke="#53B555" stroke-opacity="0.7" stroke-width="5"/>
<rect x="303.5" y="13.5" width="68" height="68" rx="7.5" stroke="#53B555" stroke-opacity="0.7" stroke-width="5"/>
<path fill-rule="evenodd" clip-rule="evenodd" d="M384.499 190.143C383.965 192.852 385.729 195.481 388.438 196.015C391.147 196.549 393.777 194.786 394.31 192.076L395.59 185.582L402.183 186.881C404.892 187.415 407.521 185.652 408.055 182.942C408.589 180.233 406.825 177.604 404.116 177.07L397.523 175.771L399.467 165.904C400.001 163.195 398.238 160.566 395.528 160.032C392.819 159.498 390.19 161.262 389.656 163.971L387.712 173.838L377.944 171.913C375.235 171.379 372.606 173.143 372.072 175.852C371.538 178.562 373.301 181.191 376.011 181.724L385.779 183.649L384.499 190.143Z" fill="#EF516F" fill-opacity="0.7"/>
<path fill-rule="evenodd" clip-rule="evenodd" d="M27.9841 284.099C25.8231 282.379 22.6776 282.737 20.9584 284.898C19.2391 287.059 19.5972 290.205 21.7582 291.924L26.9377 296.045L22.7542 301.303C21.0349 303.464 21.393 306.61 23.5539 308.329C25.7149 310.048 28.8604 309.69 30.5796 307.529L34.7631 302.271L42.6328 308.532C44.7937 310.251 47.9392 309.893 49.6584 307.732C51.3777 305.571 51.0196 302.425 48.8587 300.706L40.989 294.445L47.1873 286.654C48.9066 284.494 48.5485 281.348 46.3875 279.629C44.2266 277.91 41.0811 278.268 39.3618 280.429L33.1636 288.219L27.9841 284.099Z" fill="#53B555" fill-opacity="0.7"/>
<circle cx="162" cy="48" r="10" stroke="#53B555" stroke-opacity="0.7" stroke-width="12"/>
<rect x="125.5" y="253.5" width="248" height="165" rx="21.5" fill="#4B82F3" stroke="#4B82F3"/>
<path fill-rule="evenodd" clip-rule="evenodd" d="M260.193 333.462C268.221 329.54 273.738 321.392 273.738 311.976C273.738 298.734 262.827 288 249.369 288C235.91 288 225 298.734 225 311.976C225 321.57 230.728 329.848 239.002 333.68L225 379.187C225.131 380.628 226.179 383.668 229.324 384.297C232.468 384.925 257.099 384.559 269.021 384.297C270.724 383.641 274.131 381.702 274.131 379.187C274.131 376.71 264.855 347.853 260.193 333.462Z" fill="#244B9B"/>
<path d="M167 190.004L167 253.461H190V190.004C190 121.504 310.5 128.504 310.5 190.004V253.461H332V190.004C332 91.5042 167 88.5042 167 190.004Z" fill="#3A6CD2"/>
</svg>
