<svg width="200" height="200" viewBox="0 0 200 200" fill="none" xmlns="http://www.w3.org/2000/svg">
<path d="M110.833 78.3333V56.6666H62.0833V143.333H137.917V83.75H121.667V108.775C121.667 113.347 119.251 117.62 115.237 120.155L100 129.781L84.7629 120.15C80.7492 117.62 78.3333 113.347 78.3333 108.775V78.3333H110.833ZM148.75 78.3333V148.712C148.755 149.423 148.62 150.129 148.352 150.788C148.085 151.447 147.69 152.047 147.19 152.553C146.691 153.06 146.097 153.463 145.441 153.74C144.786 154.017 144.083 154.162 143.371 154.167H56.6288C55.2032 154.167 53.8359 153.601 52.8273 152.593C51.8188 151.586 51.2514 150.219 51.25 148.793V51.2066C51.25 48.2979 53.6821 45.8333 56.6775 45.8333H116.234L148.75 78.3333ZM89.1667 108.775C89.1667 109.587 89.6379 110.422 90.5479 110.996L100 116.965L109.452 110.996C110.362 110.422 110.833 109.587 110.833 108.775V89.1666H89.1667V108.775V108.775Z" fill="#4B82F3"/>
<rect x="3.13601" y="36.8111" width="32.1775" height="32.1775" rx="7.5" transform="rotate(-17.4984 3.13601 36.8111)" stroke="#EF516F" stroke-opacity="0.7" stroke-width="5"/>
<circle cx="175.5" cy="173.5" r="13.5" stroke="#53B555" stroke-opacity="0.7" stroke-width="12"/>
<path fill-rule="evenodd" clip-rule="evenodd" d="M162.299 47.0512C161.116 49.5464 162.18 52.5282 164.675 53.7112C167.17 54.8942 170.152 53.8305 171.335 51.3353L174.011 45.6906L179.744 48.4086C182.239 49.5917 185.221 48.5279 186.404 46.0327C187.587 43.5376 186.523 40.5558 184.028 39.3728L178.295 36.6547L182.26 28.2922C183.443 25.797 182.379 22.8152 179.884 21.6322C177.389 20.4492 174.407 21.5129 173.224 24.0081L169.259 32.3707L160.985 28.4476C158.49 27.2646 155.508 28.3283 154.325 30.8235C153.142 33.3187 154.205 36.3005 156.701 37.4835L164.975 41.4065L162.299 47.0512Z" fill="#EF516F" fill-opacity="0.7"/>
</svg>
